<svg width="49" height="73" viewBox="0 0 49 73" fill="none" xmlns="http://www.w3.org/2000/svg">
<!-- <path d="M11.4759 6.74947L14.9486 32.4098C15.0007 32.3901 15.053 32.3705 15.1053 32.351L24.9387 4.17321C26.5727 0.685056 29.8067 -0.933736 32.5685 0.550885C35.3304 2.03551 36.4535 6.08582 35.2024 9.77981L28.8176 30.4274L28.8498 30.4266C34.8328 28.5 38.6364 30.6917 40.2159 34.3334C46.4258 33.5448 48.917 37.451 48.9577 40.3776C49.628 49.991 42.0991 72.513 42.3584 73H9.00953C7.57591 68.7477 3.34702 52.2177 5.36212 46.9066L0.0283934 9.77982C-0.270732 5.8507 1.82406 2.14364 4.87425 1.35106C7.92443 0.719876 10.7539 2.93024 11.4759 6.74947Z" fill="#41424B"/> -->
<path d="M11.4759 6.74947L14.9486 32.4098C15.0007 32.3901 15.053 32.3705 15.1053 32.351L24.9387 4.17321C26.5727 0.685056 29.8067 -0.933736 32.5685 0.550885C35.3304 2.03551 36.4535 6.08582 35.2024 9.77981L28.8176 30.4274L28.8498 30.4266C34.8328 28.5 38.6364 30.6917 40.2159 34.3334C46.4258 33.5448 48.917 37.451 48.9577 40.3776C49.628 49.991 42.0991 72.513 42.3584 73H9.00953C7.57591 68.7477 3.34702 52.2177 5.36212 46.9066L0.0283934 9.77982C-0.270732 5.8507 1.82406 2.14364 4.87425 1.35106C7.92443 0.719876 10.7539 2.93024 11.4759 6.74947Z" fill="#FAFAFA"/>
</svg>
